<svg xmlns="http://www.w3.org/2000/svg" viewBox="0 0 1024 1024">
  <!-- Keyboard base -->
  <rect x="112" y="320" width="800" height="480" rx="64" ry="64" fill="#1a1a1a"/>
  
  <!-- Keyboard keys row 1 -->
  <rect x="176" y="384" width="72" height="72" rx="12" fill="#3a3a3a"/>
  <rect x="264" y="384" width="72" height="72" rx="12" fill="#3a3a3a"/>
  <rect x="352" y="384" width="72" height="72" rx="12" fill="#3a3a3a"/>
  <rect x="440" y="384" width="72" height="72" rx="12" fill="#3a3a3a"/>
  <rect x="528" y="384" width="72" height="72" rx="12" fill="#3a3a3a"/>
  <rect x="616" y="384" width="72" height="72" rx="12" fill="#3a3a3a"/>
  <rect x="704" y="384" width="72" height="72" rx="12" fill="#3a3a3a"/>
  <rect x="792" y="384" width="72" height="72" rx="12" fill="#3a3a3a"/>
  
  <!-- Keyboard keys row 2 -->
  <rect x="176" y="472" width="72" height="72" rx="12" fill="#3a3a3a"/>
  <rect x="264" y="472" width="72" height="72" rx="12" fill="#3a3a3a"/>
  <rect x="352" y="472" width="72" height="72" rx="12" fill="#3a3a3a"/>
  <rect x="440" y="472" width="72" height="72" rx="12" fill="#3a3a3a"/>
  <rect x="528" y="472" width="72" height="72" rx="12" fill="#3a3a3a"/>
  <rect x="616" y="472" width="72" height="72" rx="12" fill="#3a3a3a"/>
  <rect x="704" y="472" width="72" height="72" rx="12" fill="#3a3a3a"/>
  <rect x="792" y="472" width="72" height="72" rx="12" fill="#3a3a3a"/>
  
  <!-- Spacebar row -->
  <rect x="176" y="560" width="72" height="72" rx="12" fill="#3a3a3a"/>
  <rect x="264" y="560" width="72" height="72" rx="12" fill="#3a3a3a"/>
  <rect x="352" y="560" width="336" height="72" rx="12" fill="#3a3a3a"/>
  <rect x="704" y="560" width="72" height="72" rx="12" fill="#3a3a3a"/>
  <rect x="792" y="560" width="72" height="72" rx="12" fill="#3a3a3a"/>
  
  <!-- Bottom row -->
  <rect x="176" y="648" width="72" height="72" rx="12" fill="#3a3a3a"/>
  <rect x="264" y="648" width="160" height="72" rx="12" fill="#3a3a3a"/>
  <rect x="440" y="648" width="160" height="72" rx="12" fill="#3a3a3a"/>
  <rect x="616" y="648" width="160" height="72" rx="12" fill="#3a3a3a"/>
  <rect x="792" y="648" width="72" height="72" rx="12" fill="#3a3a3a"/>
  
  <!-- Lock icon overlay -->
  <g transform="translate(512, 280)">
    <!-- Lock body -->
    <rect x="-100" y="0" width="200" height="160" rx="24" fill="#FF6B35"/>
    <!-- Lock shackle -->
    <path d="M-60,-80 L-60,-40 A60,60 0 0,1 60,-40 L60,-80" 
          stroke="#FF6B35" stroke-width="36" fill="none" stroke-linecap="round"/>
    <!-- Keyhole -->
    <circle cx="0" cy="56" r="28" fill="#1a1a1a"/>
    <rect x="-14" y="56" width="28" height="56" rx="8" fill="#1a1a1a"/>
  </g>
</svg>
